<svg width="18" height="18" viewBox="0 0 18 18" fill="none" xmlns="http://www.w3.org/2000/svg">
<path fill-rule="evenodd" clip-rule="evenodd" d="M9 1.5C6.96312 1.5 6.70813 1.50875 5.90812 1.545C3.18438 1.67 1.67063 3.18125 1.54563 5.9075C1.50875 6.70813 1.5 6.96312 1.5 9C1.5 11.0369 1.50875 11.2925 1.545 12.0925C1.67 14.8162 3.18125 16.33 5.9075 16.455C6.70813 16.4913 6.96312 16.5 9 16.5C11.0369 16.5 11.2925 16.4913 12.0925 16.455C14.8137 16.33 16.3313 14.8187 16.4544 12.0925C16.4913 11.2925 16.5 11.0369 16.5 9C16.5 6.96312 16.4913 6.70813 16.455 5.90812C16.3325 3.18688 14.8194 1.67063 12.0931 1.54563C11.2925 1.50875 11.0369 1.5 9 1.5ZM9 5.14869C6.87313 5.14869 5.14875 6.87307 5.14875 8.99994C5.14875 11.1268 6.87313 12.8518 9 12.8518C11.1269 12.8518 12.8513 11.1274 12.8513 8.99994C12.8513 6.87307 11.1269 5.14869 9 5.14869ZM8.99998 11.5C7.61935 11.5 6.49998 10.3813 6.49998 9.00004C6.49998 7.61942 7.61935 6.50004 8.99998 6.50004C10.3806 6.50004 11.5 7.61942 11.5 9.00004C11.5 10.3813 10.3806 11.5 8.99998 11.5ZM13.0038 4.0969C12.5063 4.0969 12.1031 4.50002 12.1031 4.9969C12.1031 5.49377 12.5063 5.8969 13.0038 5.8969C13.5006 5.8969 13.9031 5.49377 13.9031 4.9969C13.9031 4.50002 13.5006 4.0969 13.0038 4.0969Z" fill="#969696"/>
</svg>
