<svg width="21" height="20" viewBox="0 0 21 20" fill="none" xmlns="http://www.w3.org/2000/svg">
<path fill-rule="evenodd" clip-rule="evenodd" d="M5.99988 1.66663C3.79074 1.66663 1.99988 3.45749 1.99988 5.66663V14.3333C1.99988 16.5424 3.79074 18.3333 5.99988 18.3333L10.2338 18.3333V12.6315H8.26319V10.4094H10.2338V8.77072C10.2338 6.86888 11.4264 5.83329 13.169 5.83329C14.0038 5.83329 14.7207 5.89403 14.9299 5.92102V7.90875L13.7215 7.90937C12.774 7.90937 12.5907 8.34802 12.5907 8.99096V10.41H14.8505L14.5563 12.6321H12.5907V18.3333L14.6665 18.3333C16.8757 18.3333 18.6665 16.5424 18.6665 14.3333V5.66663C18.6665 3.45749 16.8757 1.66663 14.6665 1.66663H5.99988Z" fill="white"/>
</svg>
