<svg width="28" height="42" viewBox="0 0 28 42" fill="none" xmlns="http://www.w3.org/2000/svg">
<path d="M13.0604 33.2941C13.0604 33.3043 13.0604 33.3145 13.0604 33.3196C13.0604 33.3298 13.0604 33.3451 13.0604 33.3553V33.3604C13.0553 33.386 13.0502 33.4064 13.0502 33.4166C13.0502 33.4268 13.0349 33.4524 13.0298 33.483C13.0043 33.5289 12.9736 33.5749 12.9481 33.6157C12.9328 33.6362 12.9124 33.6566 12.9073 33.6566C12.8766 33.6872 12.8409 33.7179 12.8154 33.7485C12.7541 33.7842 12.6979 33.8302 12.6367 33.8608C12.5958 33.8863 12.555 33.9017 12.5141 33.9272C12.4835 33.9425 12.4631 33.9527 12.4528 33.9578C12.3865 33.9731 12.3099 33.9885 12.2793 33.9987C12.2435 34.0089 12.2078 34.014 12.1669 34.0242C12.1159 34.0344 12.0852 34.0446 12.0801 34.0497C11.9984 34.0599 11.9065 34.0446 11.8248 34.0446C10.6505 34.0497 9.48133 34.0446 8.30701 34.0446H0.00512695V20.2184H11.4521C11.5747 20.2184 11.7023 20.2184 11.8248 20.2184H11.8504C11.8657 20.2184 11.8759 20.2184 11.8912 20.2184C11.9423 20.2184 11.9984 20.2235 12.0495 20.2235C12.0546 20.2235 12.0597 20.2235 12.0648 20.2235C12.1261 20.2439 12.3609 20.3103 12.4784 20.3409C12.4988 20.3511 12.5243 20.3613 12.5448 20.3562C12.5754 20.3715 12.6009 20.3868 12.6315 20.4022C12.6724 20.4226 12.7132 20.4481 12.749 20.4736C12.7949 20.5043 12.8766 20.6115 12.8205 20.5247C12.846 20.5502 12.8766 20.5758 12.9022 20.6064C12.9073 20.6115 12.9328 20.637 12.9532 20.6625C12.9787 20.7034 12.9992 20.7493 13.0247 20.7902C13.0349 20.8259 13.0502 20.8719 13.0604 20.9025C13.0604 20.9076 13.0604 20.9127 13.0604 20.9178C13.0604 20.928 13.0604 20.9434 13.0604 20.9536C13.0604 20.9638 13.0604 20.974 13.0604 20.9893C13.0604 21.1323 13.0604 21.2752 13.0604 21.4182V32.0381C13.0604 32.4516 13.0706 32.8703 13.0604 33.2941Z" fill="#002CC9"/>
<path d="M27.5147 18.0944C27.5147 16.7413 27.5759 15.419 27.0398 14.1374C26.3965 12.6108 25.1558 11.4314 23.619 10.8187C23.2412 10.6707 22.8685 10.5226 22.4907 10.3796C22.1843 10.2622 21.8678 10.0988 21.5512 9.99159V5.94277C22.2558 5.94787 22.9604 5.9734 23.6599 5.94277C23.6701 5.94277 23.6803 5.94277 23.6956 5.94277C23.8335 5.94277 23.9509 5.82534 23.9509 5.68748V2.09306C23.9305 0.903431 22.9757 0.00993162 21.7963 0.00482591C21.3725 0.00482591 20.9487 0.00482591 20.525 0.00482591H6.38214C6.00942 0.00482591 5.61628 -0.0207029 5.24867 0.0456714C4.52366 0.183526 3.92629 0.729837 3.68122 1.41911C3.55358 1.77651 3.56889 2.15433 3.56889 2.52705V5.68748C3.56889 5.82534 3.68632 5.94277 3.82418 5.94277H5.96858V10.012C5.94305 10.0222 5.91752 10.0324 5.88688 10.0427L4.36538 10.64C3.88034 10.8289 3.4004 11.0127 2.9511 11.2833C2.22609 11.7173 1.60319 12.3045 1.11304 12.9938C0.377822 14.0302 0.00510571 15.2811 0 16.5524C0 17.0936 0 17.6348 0 18.1761H8.52143C9.62937 18.1761 10.7373 18.1658 11.8452 18.1761C13.4382 18.1914 15.0721 19.238 15.0976 20.9587C15.1027 21.362 15.0976 21.7654 15.0976 22.1738V32.906C15.0976 33.0388 15.0976 33.1715 15.0976 33.3043C15.0874 34.014 14.7912 34.6879 14.2705 35.173C13.5199 35.8724 12.56 36.092 11.5644 36.092H0.00510602V38.3181C0.00510602 38.6295 3.11552e-07 38.9461 0.00510602 39.2575C0.0204232 40.6463 1.05178 41.8257 2.44053 41.9789C2.75198 42.0146 3.06853 41.9942 3.37998 41.9942H23.7518C24.0887 41.9942 24.4308 41.9942 24.7678 41.9942C26.08 41.9891 27.2696 41.0496 27.4789 39.7324C27.5351 39.3852 27.5198 39.0329 27.5198 38.6857V18.0944H27.5147Z" fill="#002CC9"/>
</svg>
