<svg width="58" height="58" viewBox="0 0 58 58" fill="none" xmlns="http://www.w3.org/2000/svg">
<path d="M49.4682 15.7189C46.8947 15.7338 44.7928 14.0727 44.7917 12.0111C44.7772 9.95326 46.8559 8.27543 49.4334 8.26337C52.0051 8.25687 54.0978 9.91707 54.1123 11.9754C54.1227 14.036 52.0504 15.7147 49.4682 15.7189Z" fill="#8E3232"/>
<path d="M28.8724 23.9563C28.8724 23.9563 33.0838 22.459 36.8764 22.5416C39.5978 22.601 42.2281 22.9717 44.5927 23.5786C45.9633 21.3649 47.7601 18.7734 49.1486 17.129C46.9887 15.3477 42.3081 16.1486 40.7038 18.9827L40.3935 19.3901C40.3935 19.3901 38.3026 18.9511 34.3534 19.3571C30.4042 19.7631 27.7356 20.9176 27.9363 22.459C28.0708 23.4932 28.8724 23.9563 28.8724 23.9563Z" fill="#FFAB09"/>
<path d="M52.2632 16.1008C50.3649 17.5123 48.1417 20.5854 46.0462 23.9795C49.7855 25.0908 52.6559 26.5427 53.8675 27.2029L57.652 14.6675C57.5296 14.6522 54.6743 14.3084 52.2632 16.1008Z" fill="#03C5D1"/>
<path d="M21.2367 38.9792C21.2367 38.9792 23.6518 27.17 29.9489 24.863C40.8952 20.8619 53.6297 28.4891 53.6297 28.4891L50.3585 39.0043L21.2367 38.9792Z" fill="#03C5D1"/>
<path d="M19.5373 39.0048V32.5979C19.5373 31.1808 18.1006 30.031 16.3287 30.031H6.0784C4.3065 30.031 2.86984 31.1813 2.86984 32.5979V39.0052H19.5373V39.0048Z" fill="#FFAB09"/>
<path d="M27.528 24.7567H3.1581C1.68142 24.7567 0.484299 25.7139 0.484299 26.8953C0.484299 28.0771 1.68142 29.0343 3.1581 29.0343H23.4662C24.5752 27.2994 25.9208 25.7538 27.528 24.7567Z" fill="white"/>
</svg>
